<mxfile host="65bd71144e" modified="2021-02-22T14:51:57.084Z" agent="5.0 (Windows NT 10.0; Win64; x64) AppleWebKit/537.36 (KHTML, like Gecko) Code/1.53.2 Chrome/87.0.4280.141 Electron/11.2.1 Safari/537.36" version="14.2.4" etag="kjf6XEtabWJWdeZJLsSR" type="embed">
    <diagram id="6AEm9sYeyMduD6o3d7zn" name="Seite-1">
        <mxGraphModel dx="972" dy="896" grid="1" gridSize="10" guides="1" tooltips="1" connect="1" arrows="1" fold="1" page="1" pageScale="1" pageWidth="1169" pageHeight="827" math="0" shadow="0">
            <root>
                <mxCell id="0"/>
                <mxCell id="1" parent="0"/>
                <mxCell id="8" style="edgeStyle=orthogonalEdgeStyle;rounded=0;orthogonalLoop=1;jettySize=auto;html=1;exitX=1;exitY=0.25;exitDx=0;exitDy=0;entryX=0;entryY=0.3333333333333333;entryDx=0;entryDy=0;entryPerimeter=0;" edge="1" parent="1" source="2" target="6">
                    <mxGeometry relative="1" as="geometry"/>
                </mxCell>
                <mxCell id="10" value="Personaldaten&lt;br&gt;&lt;br&gt;Berufsbezeichnung&lt;br&gt;&lt;br&gt;Meldung" style="edgeLabel;html=1;align=center;verticalAlign=middle;resizable=0;points=[];" vertex="1" connectable="0" parent="8">
                    <mxGeometry x="0.181" y="1" relative="1" as="geometry">
                        <mxPoint x="-14" y="-39" as="offset"/>
                    </mxGeometry>
                </mxCell>
                <mxCell id="2" value="Airport" style="whiteSpace=wrap;html=1;align=left;horizontal=1;verticalAlign=top;" vertex="1" parent="1">
                    <mxGeometry x="380" y="100" width="280" height="360" as="geometry"/>
                </mxCell>
                <mxCell id="3" value="Mitarbeiter" style="shape=umlActor;verticalLabelPosition=bottom;verticalAlign=top;html=1;outlineConnect=0;" vertex="1" parent="1">
                    <mxGeometry x="40" y="170" width="30" height="60" as="geometry"/>
                </mxCell>
                <mxCell id="4" value="" style="endArrow=classic;html=1;exitX=1;exitY=0.3333333333333333;exitDx=0;exitDy=0;exitPerimeter=0;entryX=0;entryY=0.25;entryDx=0;entryDy=0;" edge="1" parent="1" source="3" target="2">
                    <mxGeometry width="50" height="50" relative="1" as="geometry">
                        <mxPoint x="210" y="300" as="sourcePoint"/>
                        <mxPoint x="260" y="250" as="targetPoint"/>
                    </mxGeometry>
                </mxCell>
                <mxCell id="5" value="&amp;lt;&amp;lt;use case&amp;gt;&amp;gt; Personal Daten&lt;br&gt;&lt;br&gt;&amp;lt;&amp;lt;event&amp;gt;&amp;gt; Personal laden&lt;br&gt;&lt;br&gt;&amp;lt;&amp;lt;event&amp;gt;&amp;gt; Berufsbezciehnung laden&lt;br&gt;&lt;br&gt;&amp;lt;&amp;lt;daten&amp;gt;&amp;gt; Vorname, Nachname, Berufsbezeichnung&lt;br&gt;&amp;lt;&amp;lt;event&amp;gt;&amp;gt; Personal anlegen&lt;br&gt;&lt;br&gt;&amp;lt;&amp;lt;daten&amp;gt;&amp;gt; ID&lt;br&gt;&amp;lt;&amp;lt;event&amp;gt;&amp;gt; Personal lÃ¶schen" style="edgeLabel;html=1;align=center;verticalAlign=middle;resizable=0;points=[];" vertex="1" connectable="0" parent="4">
                    <mxGeometry x="-0.3858" y="2" relative="1" as="geometry">
                        <mxPoint x="62.989999999999995" y="-78.76" as="offset"/>
                    </mxGeometry>
                </mxCell>
                <mxCell id="6" value="Mitarbeiter" style="shape=umlActor;verticalLabelPosition=bottom;verticalAlign=top;html=1;outlineConnect=0;" vertex="1" parent="1">
                    <mxGeometry x="870" y="170" width="30" height="60" as="geometry"/>
                </mxCell>
            </root>
        </mxGraphModel>
    </diagram>
</mxfile>
